HIERARCHY
ROOT Hips
{
	OFFSET	0.00	0.00	0.00
	CHANNELS 6 Xposition Yposition Zposition Zrotation Xrotation Yrotation
	JOINT LeftUpLeg
	{
		OFFSET	 0.126116	-0.014019	-0.065224
		CHANNELS 3 Zrotation Xrotation Yrotation
		JOINT LeftLeg
		{
			OFFSET	 0.000000	 0.000000	 0.569914
			CHANNELS 3 Zrotation Xrotation Yrotation
			JOINT LeftFoot
			{
				OFFSET	 0.000000	 0.000000	 0.544423
				CHANNELS 3 Zrotation Xrotation Yrotation
				JOINT LeftToeBase
				{
					OFFSET	 0.000000	 0.000000	 0.207117
					CHANNELS 3 Zrotation Xrotation Yrotation
					End Site
					{
						OFFSET	 0.000000	 0.000000	 0.207117
					}
				}
			}
		}
	}
	JOINT RightUpLeg
	{
		OFFSET	-0.124023	-0.008373	-0.065224
		CHANNELS 3 Zrotation Xrotation Yrotation
		JOINT RightLeg
		{
			OFFSET	 0.000000	 0.000000	 0.570047
			CHANNELS 3 Zrotation Xrotation Yrotation
			JOINT RightFoot
			{
				OFFSET	 0.000000	 0.000000	 0.544354
				CHANNELS 3 Zrotation Xrotation Yrotation
				JOINT RightToeBase
				{
					OFFSET	 0.000000	 0.000000	 0.207540
					CHANNELS 3 Zrotation Xrotation Yrotation
					End Site
					{
						OFFSET	 0.000000	 0.000000	 0.207540
					}
				}
			}
		}
	}
	JOINT Spine
	{
		OFFSET	 0.000184	-0.007763	 0.117403
		CHANNELS 3 Zrotation Xrotation Yrotation
		JOINT Spine1
		{
			OFFSET	 0.000000	 0.000000	 0.137269
			CHANNELS 3 Zrotation Xrotation Yrotation
			JOINT Spine2
			{
				OFFSET	 0.000000	 0.000000	 0.156879
				CHANNELS 3 Zrotation Xrotation Yrotation
				JOINT LeftShoulder
				{
					OFFSET	 0.080501	-0.002496	 0.160144
					CHANNELS 3 Zrotation Xrotation Yrotation
					JOINT LeftArm
					{
						OFFSET	 0.000000	 0.000000	 0.164363
						CHANNELS 3 Zrotation Xrotation Yrotation
						JOINT LeftForeArm
						{
							OFFSET	 0.000000	 0.000000	 0.364576
							CHANNELS 3 Zrotation Xrotation Yrotation
							JOINT LeftHand
							{
								OFFSET	 0.000000	 0.000000	 0.360812
								CHANNELS 3 Zrotation Xrotation Yrotation
								JOINT LeftHandIndex1
								{
									OFFSET	 0.000000	 0.000000	 0.086006
									CHANNELS 3 Zrotation Xrotation Yrotation
									JOINT LeftHandIndex2
									{
										OFFSET	 0.000000	 0.000000	 0.047236
										CHANNELS 3 Zrotation Xrotation Yrotation
										JOINT LeftHandIndex3
										{
											OFFSET	-0.004284	-0.000551	 0.038166
											CHANNELS 3 Zrotation Xrotation Yrotation
											End Site
											{
												OFFSET	-0.004284	-0.000551	 0.038166
											}
										}
									}
								}
							}
						}
					}
				}
				JOINT Neck
				{
					OFFSET	 0.000000	 0.000000	 0.176489
					CHANNELS 3 Zrotation Xrotation Yrotation
					JOINT Head
					{
						OFFSET	 0.000000	-0.001747	 0.077940
						CHANNELS 3 Zrotation Xrotation Yrotation
						End Site
						{
							OFFSET	 0.000000	-0.001747	 0.077940
						}
					}
				}
				JOINT RightShoulder
				{
					OFFSET	-0.080363	 0.000306	 0.159706
					CHANNELS 3 Zrotation Xrotation Yrotation
					JOINT RightArm
					{
						OFFSET	 0.000000	 0.000000	 0.164196
						CHANNELS 3 Zrotation Xrotation Yrotation
						JOINT RightForeArm
						{
							OFFSET	 0.000000	 0.000000	 0.365611
							CHANNELS 3 Zrotation Xrotation Yrotation
							JOINT RightHand
							{
								OFFSET	 0.000000	 0.000000	 0.360648
								CHANNELS 3 Zrotation Xrotation Yrotation
								JOINT RightHandIndex1
								{
									OFFSET	 0.000000	 0.000000	 0.069977
									CHANNELS 3 Zrotation Xrotation Yrotation
									JOINT RightHandIndex2
									{
										OFFSET	 0.000000	 0.000000	 0.052305
										CHANNELS 3 Zrotation Xrotation Yrotation
										JOINT RightHandIndex3
										{
											OFFSET	 0.009002	-0.000782	 0.042196
											CHANNELS 3 Zrotation Xrotation Yrotation
											End Site
											{
												OFFSET	 0.009002	-0.000782	 0.042196
											}
										}
									}
								}
							}
						}
					}
				}
			}
		}
	}
}
MOTION
Frames:    6
Frame Time: 0.03333334
-0.058906	-2.265079	 1.235262	 5.358188	-0.899241	-3.004015	-0.589537	-6.825120	-172.035500	 1.026950	-28.635260	 0.323127	 23.767040	 72.370090	-27.285430	-2.369052	 31.672210	-0.071221	-6.213225	-31.479390	-175.767900	 10.799780	-48.610200	 8.722473	 15.407960	 72.152730	-12.584750	 2.358951	 33.002910	 0.103293	-15.065080	 8.480945	 1.703962	-1.178664	 1.920194	-0.196130	 0.132343	-2.306980	 0.191276	-94.028470	 59.017490	 175.189200	 16.783440	 35.101930	-41.088400	-14.193950	 2.604722	-11.573280	-0.552681	-28.932950	-8.117596	-4.866755	 19.310750	-2.791281	-3.879164	 21.503070	 2.200347	-4.806537	 5.565835	 0.145779	-0.055192	-5.093118	 0.208041	-1.882194	 2.156742	 2.537522	 89.745860	 61.689850	 179.913400	-20.802360	 55.207450	 10.222300	 10.079350	 2.763075	 23.317800	-6.255108	-13.765290	 0.127028	 6.285243	 24.186260	-0.542716	 1.969187	 44.015130	-7.067567	 0.669982	 23.642190	 3.496085
-0.060896	-2.313399	 1.233630	 6.348192	 0.315809	-3.327850	-1.513861	-5.312768	-172.051200	 1.400651	-27.623330	 0.485921	 23.954120	 73.380350	-27.756300	-2.365981	 32.170890	-0.082573	-8.615674	-34.877900	-175.811800	 11.293910	-41.182580	 8.002371	 26.369090	 75.379380	-25.896110	 2.360964	 32.703170	 0.096348	-15.326170	 7.566185	 1.626352	-1.239846	 1.911999	 0.106115	-0.079910	-2.529943	 0.087136	-94.337680	 58.959960	 174.538200	 15.608600	 32.012800	-42.881720	-15.016310	 2.587974	-11.520590	 0.364872	-33.380860	-7.928672	-4.849041	 19.743210	-2.815872	-3.854433	 21.817840	 2.175227	-4.792900	 5.726398	 0.136363	-0.008233	-5.171410	 0.303902	-1.939886	 2.077486	 2.441374	 89.580550	 61.892120	 179.515100	-19.681140	 56.648880	 7.447456	 8.616603	 2.422666	 23.170580	-8.277618	-16.207920	-1.199293	 6.243277	 21.532680	-0.610143	 2.230531	 41.751240	-7.298085	 1.237465	 21.069440	 3.224094
-0.063277	-2.370030	 1.228968	 6.653585	 0.930970	-3.825055	-1.875954	-2.565332	-171.955400	 1.598598	-26.468630	 0.555366	 23.952180	 74.230170	-27.874480	-2.354623	 33.849610	-0.121514	-7.423348	-36.511970	-174.972400	 10.440980	-31.812770	 5.958226	 52.565640	 77.458780	-53.366940	 2.348663	 34.432600	 0.136927	-15.283310	 6.828113	 1.866727	-1.244889	 2.792266	 0.308179	-0.138742	-2.981397	 0.011940	-94.500450	 58.866370	 174.206900	 13.478430	 29.442600	-44.693650	-15.847440	 2.559046	-11.443030	 0.942828	-37.731180	-6.561606	-4.826788	 20.308210	-2.855430	-3.815055	 22.313900	 2.135226	-4.761888	 6.090247	 0.114876	 0.040060	-5.307729	 0.347371	-1.934858	 1.970168	 2.336541	 89.420410	 62.031120	 179.125500	-17.762460	 57.898400	 4.079505	 6.485414	 1.926498	 23.123410	-10.978030	-19.145200	-3.842406	 6.185855	 18.373240	-0.715891	 2.618664	 38.009800	-7.634064	 1.914085	 17.860940	 2.928650
-0.067727	-2.429407	 1.221645	 7.018422	 0.928161	-3.905081	-2.487312	 0.736623	-172.369800	 2.024362	-25.910170	 0.730611	 21.205870	 73.655590	-25.310030	-2.315582	 38.370010	-0.232766	-6.910261	-37.702580	-174.770900	 10.316050	-24.466970	 4.634344	 39.246900	 73.212430	-40.800380	 2.336773	 35.906170	 0.172551	-15.640950	 6.875372	 1.882449	-1.259876	 3.268217	 0.399807	-0.127301	-3.428329	-0.041661	-94.534000	 59.046170	 174.105800	 11.275960	 28.268650	-45.986310	-15.776600	 2.512175	-11.342860	 0.802199	-42.614630	-6.592671	-4.859652	 20.546650	-3.116574	-3.777984	 22.774980	 2.097580	-4.713549	 6.653715	 0.081182	 0.139666	-5.436047	 0.318346	-1.766995	 1.982211	 2.030163	 89.357230	 61.825560	 178.980600	-15.612480	 58.495090	 0.467586	 4.789381	 1.545434	 22.585290	-13.284050	-22.667600	-6.440417	 6.173370	 15.309340	-0.574468	 2.934730	 34.581970	-7.900890	 2.531550	 14.806300	 2.688464
-0.077171	-2.504057	 1.208294	 7.446685	 0.492271	-2.835921	-2.848114	 4.885767	-174.364100	 1.692307	-26.681860	 0.601612	 14.480050	 69.635900	-17.604150	-2.139872	 49.868030	-0.580755	-4.941785	-41.374340	-175.097200	 6.384538	-22.736280	 2.772718	 14.455500	 62.170120	-11.567710	 2.340783	 35.428170	 0.160878	-16.167340	 7.016022	 0.869857	-1.211389	 4.433112	 0.588098	-0.148983	-3.828744	-0.283174	-94.447010	 59.374640	 174.237600	 9.025886	 27.532110	-47.682290	-15.923740	 2.440693	-11.184050	 0.830430	-47.304260	-6.023265	-4.894825	 20.730260	-3.379568	-3.752342	 23.090610	 2.071552	-4.629629	 7.621043	 0.022111	 0.269270	-5.473484	 0.239818	-1.465618	 2.200057	 2.168261	 89.349500	 61.402550	 178.977700	-13.626180	 58.597870	-3.572304	 3.042736	 1.031205	 23.128560	-16.342460	-26.763880	-9.026845	 6.280882	 11.764780	 0.081671	 3.145609	 32.081360	-8.074874	 3.160409	 11.581710	 2.474749
-0.086529	-2.583654	 1.197904	 9.092699	-0.539407	-1.556097	-2.506821	 9.510256	-177.298300	 0.147352	-27.695420	-0.095449	 8.114713	 57.093750	-7.734661	-1.674952	 62.969720	-1.227373	-2.780553	-41.582480	-175.016800	 6.771728	-22.441020	 2.888529	 0.794070	 47.700230	 5.316588	 2.338620	 35.688570	 0.167216	-17.268350	 7.310211	-0.215955	-1.653484	 5.862329	 0.301825	-0.346766	-4.104083	-0.358507	-94.339680	 59.122850	 174.508700	 7.844687	 26.566870	-48.715420	-15.989580	 2.356919	-10.998980	 2.478664	-48.247700	-4.502910	-4.869372	 21.057430	-3.339838	-3.713540	 23.563310	 2.032165	-4.543628	 8.598096	-0.039158	 0.388754	-5.378023	 0.275543	-1.302393	 2.723299	 2.400544	 89.137700	 61.231720	 178.486400	-12.233890	 58.325930	-4.901659	 2.938916	 1.085466	 21.432550	-17.505600	-30.168710	-8.913815	 6.353948	 9.275250	 0.435659	 3.349110	 29.490930	-8.239215	 3.529431	 9.641662	 2.364634
